<svg width="160" height="160" viewBox="0 0 160 160" fill="none" xmlns="http://www.w3.org/2000/svg" role="img" aria-labelledby="title desc">
  <title id="title">Logo UNI2</title>
  <desc id="desc">Logo circular de UNI2 con colores rojo, azul, verde y amarillo.</desc>
  <rect width="160" height="160" rx="28" fill="white"/>
  <circle cx="80" cy="80" r="66" fill="#F7A400"/>
  <path d="M80 14C101.7 14 120.9 24.5 132.9 40.8L80 80V14Z" fill="#2D46B9"/>
  <path d="M132.9 40.8C141 51.8 146 65.4 146 80C146 116.5 116.5 146 80 146V80L132.9 40.8Z" fill="#1DB954"/>
  <path d="M80 146C43.5 146 14 116.5 14 80C14 65.4 19 51.8 27.1 40.8L80 80V146Z" fill="#FF1744"/>
  <path d="M27.1 40.8C39.1 24.5 58.3 14 80 14V80L27.1 40.8Z" fill="#F7A400"/>
  <circle cx="80" cy="80" r="42" fill="white"/>
  <text x="80" y="91" text-anchor="middle" fill="#141414" font-family="Montserrat, Arial, sans-serif" font-size="30" font-weight="800">UNI2</text>
</svg>
